<mxfile host="app.diagrams.net" modified="2023-09-10T13:08:31.133Z" agent="Mozilla/5.0 (X11; Linux x86_64) AppleWebKit/537.36 (KHTML, like Gecko) Chrome/115.0.0.0 Safari/537.36" etag="8uSmikq-RGDqe31SkTYC" version="21.7.2" type="github">
  <diagram name="Page-1" id="X2JnDKoGHxt49fTbtLQz">
    <mxGraphModel dx="1263" dy="773" grid="1" gridSize="10" guides="1" tooltips="1" connect="1" arrows="1" fold="1" page="1" pageScale="1" pageWidth="850" pageHeight="1100" math="0" shadow="0">
      <root>
        <mxCell id="0" />
        <mxCell id="1" parent="0" />
        <mxCell id="wpx5yHl7sN_ZGKeGzRwJ-62" value="" style="group" vertex="1" connectable="0" parent="1">
          <mxGeometry x="970" y="240" width="330" height="560" as="geometry" />
        </mxCell>
        <mxCell id="wpx5yHl7sN_ZGKeGzRwJ-46" value="" style="shape=ext;double=1;rounded=0;whiteSpace=wrap;html=1;fillColor=#030303;movable=1;resizable=1;rotatable=1;deletable=1;editable=1;locked=0;connectable=1;" vertex="1" parent="wpx5yHl7sN_ZGKeGzRwJ-62">
          <mxGeometry x="20" y="50" width="290" height="460" as="geometry" />
        </mxCell>
        <mxCell id="wpx5yHl7sN_ZGKeGzRwJ-51" value="" style="shape=image;html=1;verticalAlign=top;verticalLabelPosition=bottom;labelBackgroundColor=#ffffff;imageAspect=0;aspect=fixed;image=https://cdn2.iconfinder.com/data/icons/boxicons-solid-vol-2/24/bxs-planet-128.png;movable=1;resizable=1;rotatable=1;deletable=1;editable=1;locked=0;connectable=1;" vertex="1" parent="wpx5yHl7sN_ZGKeGzRwJ-62">
          <mxGeometry y="20" width="120" height="120" as="geometry" />
        </mxCell>
        <mxCell id="wpx5yHl7sN_ZGKeGzRwJ-53" value="" style="shape=image;html=1;verticalAlign=top;verticalLabelPosition=bottom;labelBackgroundColor=#ffffff;imageAspect=0;aspect=fixed;image=https://cdn2.iconfinder.com/data/icons/boxicons-solid-vol-2/24/bxs-planet-128.png;movable=1;resizable=1;rotatable=1;deletable=1;editable=1;locked=0;connectable=1;" vertex="1" parent="wpx5yHl7sN_ZGKeGzRwJ-62">
          <mxGeometry x="210" y="120" width="120" height="120" as="geometry" />
        </mxCell>
        <mxCell id="wpx5yHl7sN_ZGKeGzRwJ-54" value="" style="shape=image;html=1;verticalAlign=top;verticalLabelPosition=bottom;labelBackgroundColor=#ffffff;imageAspect=0;aspect=fixed;image=https://cdn2.iconfinder.com/data/icons/boxicons-solid-vol-2/24/bxs-planet-128.png;movable=1;resizable=1;rotatable=1;deletable=1;editable=1;locked=0;connectable=1;" vertex="1" parent="wpx5yHl7sN_ZGKeGzRwJ-62">
          <mxGeometry y="270" width="120" height="120" as="geometry" />
        </mxCell>
        <mxCell id="wpx5yHl7sN_ZGKeGzRwJ-55" value="" style="shape=image;html=1;verticalAlign=top;verticalLabelPosition=bottom;labelBackgroundColor=#ffffff;imageAspect=0;aspect=fixed;image=https://cdn2.iconfinder.com/data/icons/boxicons-solid-vol-2/24/bxs-planet-128.png;movable=1;resizable=1;rotatable=1;deletable=1;editable=1;locked=0;connectable=1;" vertex="1" parent="wpx5yHl7sN_ZGKeGzRwJ-62">
          <mxGeometry x="210" y="390" width="120" height="120" as="geometry" />
        </mxCell>
        <mxCell id="wpx5yHl7sN_ZGKeGzRwJ-44" value="" style="verticalLabelPosition=bottom;verticalAlign=top;html=1;shadow=0;dashed=0;strokeWidth=1;shape=mxgraph.android.phone2;strokeColor=#b85450;fillColor=#220AF8;movable=1;resizable=1;rotatable=1;deletable=1;editable=1;locked=0;connectable=1;perimeterSpacing=10;" vertex="1" parent="wpx5yHl7sN_ZGKeGzRwJ-62">
          <mxGeometry x="10" width="310" height="560" as="geometry" />
        </mxCell>
        <mxCell id="wpx5yHl7sN_ZGKeGzRwJ-52" style="edgeStyle=orthogonalEdgeStyle;rounded=0;orthogonalLoop=1;jettySize=auto;html=1;exitX=0.75;exitY=0;exitDx=0;exitDy=0;fontFamily=Helvetica;fontSize=12;fontColor=default;movable=1;resizable=1;rotatable=1;deletable=1;editable=1;locked=0;connectable=1;" edge="1" parent="wpx5yHl7sN_ZGKeGzRwJ-62" source="wpx5yHl7sN_ZGKeGzRwJ-51" target="wpx5yHl7sN_ZGKeGzRwJ-51">
          <mxGeometry relative="1" as="geometry" />
        </mxCell>
        <mxCell id="wpx5yHl7sN_ZGKeGzRwJ-64" value="" style="group" vertex="1" connectable="0" parent="1">
          <mxGeometry x="1065" y="80" width="140" height="60" as="geometry" />
        </mxCell>
        <mxCell id="wpx5yHl7sN_ZGKeGzRwJ-58" value="f" style="label;whiteSpace=wrap;html=1;image=img/clipart/Gear_128x128.png;rounded=0;strokeColor=default;fontFamily=Helvetica;fontSize=12;fontColor=default;fillColor=#030303;" vertex="1" parent="wpx5yHl7sN_ZGKeGzRwJ-64">
          <mxGeometry width="140" height="60" as="geometry" />
        </mxCell>
        <mxCell id="wpx5yHl7sN_ZGKeGzRwJ-60" value="2" style="text;html=1;strokeColor=none;fillColor=none;align=center;verticalAlign=middle;whiteSpace=wrap;rounded=0;fontSize=32;fontFamily=Helvetica;fontColor=#FFFFFF;perimeterSpacing=16;strokeWidth=7;" vertex="1" parent="wpx5yHl7sN_ZGKeGzRwJ-64">
          <mxGeometry x="60" y="15" width="60" height="30" as="geometry" />
        </mxCell>
        <mxCell id="wpx5yHl7sN_ZGKeGzRwJ-63" style="edgeStyle=none;shape=flexArrow;rounded=0;orthogonalLoop=1;jettySize=auto;html=1;exitX=0.5;exitY=0;exitDx=0;exitDy=0;entryX=0.25;entryY=0;entryDx=0;entryDy=0;fontFamily=Helvetica;fontSize=12;fontColor=#FFFFFF;" edge="1" parent="wpx5yHl7sN_ZGKeGzRwJ-64" source="wpx5yHl7sN_ZGKeGzRwJ-60" target="wpx5yHl7sN_ZGKeGzRwJ-60">
          <mxGeometry relative="1" as="geometry" />
        </mxCell>
        <mxCell id="wpx5yHl7sN_ZGKeGzRwJ-65" value="" style="group" vertex="1" connectable="0" parent="1">
          <mxGeometry x="425" y="80" width="140" height="60" as="geometry" />
        </mxCell>
        <mxCell id="wpx5yHl7sN_ZGKeGzRwJ-56" value="f" style="label;whiteSpace=wrap;html=1;image=img/clipart/Gear_128x128.png;rounded=0;strokeColor=default;fontFamily=Helvetica;fontSize=12;fontColor=default;fillColor=#030303;" vertex="1" parent="wpx5yHl7sN_ZGKeGzRwJ-65">
          <mxGeometry width="140" height="60" as="geometry" />
        </mxCell>
        <mxCell id="wpx5yHl7sN_ZGKeGzRwJ-57" value="1" style="text;html=1;strokeColor=none;fillColor=none;align=center;verticalAlign=middle;whiteSpace=wrap;rounded=0;fontSize=32;fontFamily=Helvetica;fontColor=#FFFFFF;perimeterSpacing=16;strokeWidth=7;" vertex="1" parent="wpx5yHl7sN_ZGKeGzRwJ-65">
          <mxGeometry x="55" y="15" width="60" height="30" as="geometry" />
        </mxCell>
        <mxCell id="wpx5yHl7sN_ZGKeGzRwJ-66" value="" style="group" vertex="1" connectable="0" parent="1">
          <mxGeometry x="1570" y="240" width="330" height="560" as="geometry" />
        </mxCell>
        <mxCell id="wpx5yHl7sN_ZGKeGzRwJ-67" value="" style="shape=ext;double=1;rounded=0;whiteSpace=wrap;html=1;fillColor=#030303;movable=1;resizable=1;rotatable=1;deletable=1;editable=1;locked=0;connectable=1;" vertex="1" parent="wpx5yHl7sN_ZGKeGzRwJ-66">
          <mxGeometry x="20" y="50" width="290" height="460" as="geometry" />
        </mxCell>
        <mxCell id="wpx5yHl7sN_ZGKeGzRwJ-73" style="edgeStyle=orthogonalEdgeStyle;rounded=0;orthogonalLoop=1;jettySize=auto;html=1;exitX=0.75;exitY=0;exitDx=0;exitDy=0;fontFamily=Helvetica;fontSize=12;fontColor=default;movable=1;resizable=1;rotatable=1;deletable=1;editable=1;locked=0;connectable=1;" edge="1" parent="wpx5yHl7sN_ZGKeGzRwJ-66">
          <mxGeometry relative="1" as="geometry">
            <mxPoint x="90" y="20" as="sourcePoint" />
            <mxPoint x="59.999999999999545" y="140" as="targetPoint" />
          </mxGeometry>
        </mxCell>
        <mxCell id="wpx5yHl7sN_ZGKeGzRwJ-72" value="" style="verticalLabelPosition=bottom;verticalAlign=top;html=1;shadow=0;dashed=0;strokeWidth=1;shape=mxgraph.android.phone2;strokeColor=#b85450;fillColor=#220AF8;movable=1;resizable=1;rotatable=1;deletable=1;editable=1;locked=0;connectable=1;perimeterSpacing=10;" vertex="1" parent="wpx5yHl7sN_ZGKeGzRwJ-66">
          <mxGeometry x="10" width="310" height="560" as="geometry" />
        </mxCell>
        <mxCell id="wpx5yHl7sN_ZGKeGzRwJ-74" value="" style="shape=link;html=1;rounded=0;fontFamily=Helvetica;fontSize=12;fontColor=#FFFFFF;" edge="1" parent="1">
          <mxGeometry width="100" relative="1" as="geometry">
            <mxPoint x="1080" y="480" as="sourcePoint" />
            <mxPoint x="1180" y="480" as="targetPoint" />
          </mxGeometry>
        </mxCell>
        <mxCell id="wpx5yHl7sN_ZGKeGzRwJ-76" value="" style="line;strokeWidth=2;html=1;rounded=0;fontFamily=Helvetica;fontSize=12;fontColor=#FFFFFF;fillColor=none;gradientColor=none;" vertex="1" parent="1">
          <mxGeometry x="1050" y="470" width="160" height="10" as="geometry" />
        </mxCell>
        <mxCell id="wpx5yHl7sN_ZGKeGzRwJ-77" value="" style="line;strokeWidth=2;html=1;rounded=0;fontFamily=Helvetica;fontSize=12;fontColor=#FFFFFF;fillColor=none;gradientColor=none;" vertex="1" parent="1">
          <mxGeometry x="290" y="700" width="1580" height="210" as="geometry" />
        </mxCell>
        <mxCell id="wpx5yHl7sN_ZGKeGzRwJ-78" value="" style="group" vertex="1" connectable="0" parent="1">
          <mxGeometry x="340" y="240" width="310" height="560" as="geometry" />
        </mxCell>
        <mxCell id="wpx5yHl7sN_ZGKeGzRwJ-9" value="" style="verticalLabelPosition=bottom;verticalAlign=top;html=1;shadow=0;dashed=0;strokeWidth=1;shape=mxgraph.android.phone2;strokeColor=#b85450;fillColor=#220AF8;movable=1;resizable=1;rotatable=1;deletable=1;editable=1;locked=0;connectable=1;" vertex="1" parent="wpx5yHl7sN_ZGKeGzRwJ-78">
          <mxGeometry width="310" height="560" as="geometry" />
        </mxCell>
        <mxCell id="wpx5yHl7sN_ZGKeGzRwJ-22" value="" style="group;movable=1;resizable=1;rotatable=1;deletable=1;editable=1;locked=0;connectable=1;" vertex="1" connectable="0" parent="wpx5yHl7sN_ZGKeGzRwJ-78">
          <mxGeometry x="10" y="50" width="290" height="460" as="geometry" />
        </mxCell>
        <mxCell id="wpx5yHl7sN_ZGKeGzRwJ-13" value="" style="shape=ext;double=1;rounded=0;whiteSpace=wrap;html=1;fillColor=#030303;movable=1;resizable=1;rotatable=1;deletable=1;editable=1;locked=0;connectable=1;" vertex="1" parent="wpx5yHl7sN_ZGKeGzRwJ-22">
          <mxGeometry width="290" height="460" as="geometry" />
        </mxCell>
        <mxCell id="wpx5yHl7sN_ZGKeGzRwJ-24" value="" style="group;movable=1;resizable=1;rotatable=1;deletable=1;editable=1;locked=0;connectable=1;" vertex="1" connectable="0" parent="wpx5yHl7sN_ZGKeGzRwJ-22">
          <mxGeometry x="95" y="380" width="100" height="50" as="geometry" />
        </mxCell>
        <mxCell id="wpx5yHl7sN_ZGKeGzRwJ-17" value="" style="rounded=1;whiteSpace=wrap;html=1;movable=1;resizable=1;rotatable=1;deletable=1;editable=1;locked=0;connectable=1;" vertex="1" parent="wpx5yHl7sN_ZGKeGzRwJ-24">
          <mxGeometry width="100" height="50" as="geometry" />
        </mxCell>
        <mxCell id="wpx5yHl7sN_ZGKeGzRwJ-20" value="&lt;h1&gt;start&lt;/h1&gt;" style="text;html=1;strokeColor=none;fillColor=none;align=center;verticalAlign=middle;whiteSpace=wrap;rounded=0;movable=1;resizable=1;rotatable=1;deletable=1;editable=1;locked=0;connectable=1;" vertex="1" parent="wpx5yHl7sN_ZGKeGzRwJ-24">
          <mxGeometry x="20" y="10" width="60" height="30" as="geometry" />
        </mxCell>
        <mxCell id="wpx5yHl7sN_ZGKeGzRwJ-25" value="" style="group;movable=1;resizable=1;rotatable=1;deletable=1;editable=1;locked=0;connectable=1;" vertex="1" connectable="0" parent="wpx5yHl7sN_ZGKeGzRwJ-22">
          <mxGeometry x="55" y="140" width="180" height="180" as="geometry" />
        </mxCell>
        <mxCell id="wpx5yHl7sN_ZGKeGzRwJ-19" value="" style="shape=image;html=1;verticalAlign=top;verticalLabelPosition=bottom;labelBackgroundColor=#ffffff;imageAspect=0;aspect=fixed;image=https://cdn2.iconfinder.com/data/icons/boxicons-solid-vol-2/24/bxs-planet-128.png;movable=1;resizable=1;rotatable=1;deletable=1;editable=1;locked=0;connectable=1;" vertex="1" parent="wpx5yHl7sN_ZGKeGzRwJ-25">
          <mxGeometry width="180" height="180" as="geometry" />
        </mxCell>
        <mxCell id="wpx5yHl7sN_ZGKeGzRwJ-23" style="edgeStyle=orthogonalEdgeStyle;rounded=0;orthogonalLoop=1;jettySize=auto;html=1;exitX=0.75;exitY=0;exitDx=0;exitDy=0;fontFamily=Helvetica;fontSize=12;fontColor=default;movable=1;resizable=1;rotatable=1;deletable=1;editable=1;locked=0;connectable=1;" edge="1" parent="wpx5yHl7sN_ZGKeGzRwJ-25" source="wpx5yHl7sN_ZGKeGzRwJ-19" target="wpx5yHl7sN_ZGKeGzRwJ-19">
          <mxGeometry relative="1" as="geometry" />
        </mxCell>
        <mxCell id="wpx5yHl7sN_ZGKeGzRwJ-80" value="" style="edgeStyle=elbowEdgeStyle;elbow=vertical;endArrow=classic;html=1;curved=0;rounded=0;endSize=8;startSize=8;fontFamily=Helvetica;fontSize=12;fontColor=#FFFFFF;shape=flexArrow;" edge="1" parent="1">
          <mxGeometry width="50" height="50" relative="1" as="geometry">
            <mxPoint x="1100" y="500" as="sourcePoint" />
            <mxPoint x="1150" y="450" as="targetPoint" />
          </mxGeometry>
        </mxCell>
        <mxCell id="wpx5yHl7sN_ZGKeGzRwJ-83" value="" style="group" vertex="1" connectable="0" parent="1">
          <mxGeometry x="1670" y="80" width="140" height="60" as="geometry" />
        </mxCell>
        <mxCell id="wpx5yHl7sN_ZGKeGzRwJ-84" value="f" style="label;whiteSpace=wrap;html=1;image=img/clipart/Gear_128x128.png;rounded=0;strokeColor=default;fontFamily=Helvetica;fontSize=12;fontColor=default;fillColor=#030303;" vertex="1" parent="wpx5yHl7sN_ZGKeGzRwJ-83">
          <mxGeometry width="140" height="60" as="geometry" />
        </mxCell>
        <mxCell id="wpx5yHl7sN_ZGKeGzRwJ-85" value="3" style="text;html=1;strokeColor=none;fillColor=none;align=center;verticalAlign=middle;whiteSpace=wrap;rounded=0;fontSize=32;fontFamily=Helvetica;fontColor=#FFFFFF;perimeterSpacing=16;strokeWidth=7;" vertex="1" parent="wpx5yHl7sN_ZGKeGzRwJ-83">
          <mxGeometry x="60" y="15" width="60" height="30" as="geometry" />
        </mxCell>
        <mxCell id="wpx5yHl7sN_ZGKeGzRwJ-86" style="edgeStyle=none;shape=flexArrow;rounded=0;orthogonalLoop=1;jettySize=auto;html=1;exitX=0.5;exitY=0;exitDx=0;exitDy=0;entryX=0.25;entryY=0;entryDx=0;entryDy=0;fontFamily=Helvetica;fontSize=12;fontColor=#FFFFFF;" edge="1" parent="wpx5yHl7sN_ZGKeGzRwJ-83" source="wpx5yHl7sN_ZGKeGzRwJ-85" target="wpx5yHl7sN_ZGKeGzRwJ-85">
          <mxGeometry relative="1" as="geometry" />
        </mxCell>
      </root>
    </mxGraphModel>
  </diagram>
</mxfile>
